<svg width="1024" height="1024" viewBox="0 0 1024 1024" fill="none" xmlns="http://www.w3.org/2000/svg">
<g clip-path="url(#clip0_1_9)">
<path d="M952.783 615.633C1021.02 658.273 1041.77 748.157 999.133 816.395C956.493 884.632 866.609 905.383 798.371 862.744L71.2172 408.367C2.97954 365.728 -17.7723 275.844 24.8671 207.606C67.5068 139.368 157.391 118.617 225.629 161.257L952.783 615.633ZM341.011 282.642C336.473 279.807 334.205 278.389 331.92 278.189C329.91 278.013 327.896 278.478 326.166 279.517C324.2 280.698 322.783 282.967 319.948 287.504L226.034 437.797C223.199 442.334 221.781 444.603 221.581 446.888C221.405 448.898 221.871 450.912 222.91 452.641C224.092 454.607 226.36 456.025 230.897 458.861L682.989 741.359C687.526 744.194 689.796 745.611 692.08 745.811C694.09 745.987 696.104 745.522 697.833 744.483C699.799 743.302 701.217 741.033 704.052 736.495L797.965 586.203C800.8 581.665 802.218 579.397 802.418 577.112C802.594 575.102 802.129 573.088 801.09 571.359C799.909 569.393 797.64 567.976 793.103 565.14L341.011 282.642Z" fill="white"/>
<circle cx="420.852" cy="455.045" r="48.9627" transform="rotate(32 420.852 455.045)" fill="white"/>
<circle cx="603.147" cy="568.955" r="48.9627" transform="rotate(32 603.147 568.955)" fill="white"/>
</g>
<defs>
<clipPath id="clip0_1_9">
<rect width="1024" height="1024" fill="white"/>
</clipPath>
</defs>
</svg>
